Coordinates
version=1
nRows=14
nColumns=33
inDegrees=yes

Units are S.I. units (second, meters, Newtons, ...)
Angles are in degrees.

endheader
time	ground_thorax_rot_x	ground_thorax_rot_y	ground_thorax_rot_z	ground_thorax_tx	ground_thorax_ty	ground_thorax_tz	clav_prot_r	clav_elev_r	scapula_abduction_r	scapula_elevation_r	scapula_upward_rot_r	scapula_winging_r	shoulder_elv_r	plane_of_elev_r	axial_rot_r	elbow_flexion_r	pro_sup_r	wrist_flex_r	wrist_dev_r	clav_prot_l	clav_elev_l	scapula_abduction_l	scapula_elevation_l	scapula_upward_rot_l	scapula_winging_l	shoulder_elv_l	plane_of_elev_l	axial_rot_l	elbow_flexion_l	pro_sup_l	wrist_flex_l	wrist_dev_l
      2.10000000	     -3.19319727	      4.35396141	     10.71156162	     -0.10404279	      1.02693744	      0.01297748	     17.15359737	    -13.20073009	     42.73774554	    -13.44761401	     23.25450470	    -12.10625722	     -5.22787488	    -55.82881538	    120.81752988	    -35.31741392	   -127.37032584	     -0.43701323	      8.12419615	     25.00311655	    -11.24619376	    -37.40130162	     -6.07614008	    -25.58173028	     12.32548930	     54.81250594	      2.81534248	      9.31243053	     12.43707200	     23.13746229	     14.51144565	     -8.77779201
      2.11000000	     -3.08423567	      4.46357885	     10.62252025	     -0.10385819	      1.02698515	      0.01320233	     17.12029707	    -13.07917965	     42.64244447	    -13.32531525	     23.17924393	    -12.14922278	     -5.45647336	    -56.05521568	    120.76164958	    -35.86878789	   -127.71358612	     -0.30380474	      7.94959458	     24.99204825	    -11.33150942	    -37.36581275	     -6.10992575	    -25.80698741	     12.26778782	     55.01095093	      2.54951115	      9.45175315	     13.30024549	     22.78651266	     14.30867167	     -8.88141341
      2.12000000	     -2.98636720	      4.56780663	     10.69776495	     -0.10390585	      1.02688745	      0.01333097	     17.14975489	    -13.03268585	     42.48834671	    -13.20516467	     22.87664808	    -12.15198857	     -5.66614197	    -56.32312359	    120.57386966	    -36.39886671	   -128.20450278	     -0.06634621	      7.72646223	     24.91505057	    -11.32391466	    -37.23524106	     -6.22335154	    -26.02885753	     12.17677285	     55.06880110	      2.25544335	      9.32224669	     14.16777559	     22.43971512	     14.22501160	     -9.05563629
      2.13000000	     -2.93296723	      4.66728002	     10.74906639	     -0.10400927	      1.02668555	      0.01348416	     17.16540723	    -13.01291950	     42.24804553	    -13.08215646	     22.47757012	    -12.11060373	     -5.86711056	    -56.53885556	    120.31512681	    -37.00635097	   -128.86758871	      0.28316911	      7.49128578	     24.78131791	    -11.22911384	    -37.02371213	     -6.39490873	    -26.20933088	     12.05852446	     55.14866469	      1.92350804	      9.13648083	     15.14885396	     22.09396990	     14.20582087	     -9.29909316
      2.14000000	     -3.08638258	      4.76180747	     10.64621515	     -0.10372433	      1.02733325	      0.01331434	     16.88640035	    -13.85550280	     41.57099316	    -13.74167569	     22.18793136	    -11.27646534	     -6.31119620	    -57.29952414	    119.82417802	    -37.29098384	   -134.42813295	      1.43224096	      6.43361816	     24.23307153	    -11.16239186	    -36.13172910	     -6.39958312	    -26.02955716	     11.54551177	     55.46920673	      1.15117072	      8.11887584	     16.11255054	     20.39229950	     14.51224653	     -9.49847840
      2.15000000	     -2.96031740	      4.86010251	     10.68721646	     -0.10397075	      1.02670229	      0.01352531	     16.87532455	    -13.60081625	     41.18288621	    -13.36579248	     21.60614296	    -11.34303542	     -6.43277681	    -57.36830620	    119.65125086	    -38.22213213	   -134.82810406	      1.63993526	      6.21951077	     24.09886460	    -10.97434380	    -35.92882342	     -6.66944651	    -26.25180383	     11.45201048	     55.47591868	      0.93892005	      8.16971960	     17.28398758	     20.30413637	     14.39362483	     -9.75399934
      2.16000000	     -2.85349755	      4.92549134	     10.83710845	     -0.10426865	      1.02612465	      0.01369759	     16.83156928	    -13.43908198	     40.68189978	    -13.04454591	     20.93482864	    -11.30294847	     -6.65029798	    -57.52508093	    119.39718218	    -39.17802277	   -135.55196076	      2.00971628	      6.06746375	     23.91551405	    -10.82500969	    -35.63942625	     -6.95115508	    -26.56168954	     11.29146887	     55.51942780	      0.55607042	      8.13572489	     18.67765183	     20.22156137	     14.32777352	    -10.10127710
      2.17000000	     -2.89286165	      5.15173483	     10.91035735	     -0.10460123	      1.02671690	      0.01378454	     16.68907571	    -14.25121784	     39.64443343	    -13.42591131	     19.76185705	    -10.44447000	     -6.72570955	    -58.02468113	    118.62847508	    -40.21196324	   -140.60504291	      3.13508631	      5.97032732	     23.53695111	    -11.13455500	    -34.97251484	     -6.81300708	    -26.78719046	     10.80531907	     56.24774968	     -0.39629994	      6.99087817	     20.12332500	     20.46581786	     14.70558277	    -10.64603745
      2.18000000	     -2.78847319	      5.10573614	     10.94720684	     -0.10478176	      1.02590958	      0.01388828	     16.44307247	    -13.95169188	     39.01770316	    -13.06149569	     19.36042779	    -10.38696591	     -7.10183770	    -58.23907365	    118.66262835	    -41.30355806	   -141.24209666	      3.44639035	      5.84757292	     23.27349944	    -10.71363311	    -34.58475470	     -7.29907178	    -27.02579449	     10.65111721	     56.10078100	     -0.60020794	      7.63365727	     21.65734248	     20.27248716	     14.63512159	    -10.96167902
      2.19000000	     -2.97835881	      5.20023113	     10.94514598	     -0.10476719	      1.02649669	      0.01371138	     15.92204349	    -15.00042207	     37.44614176	    -13.68603359	     18.27982822	     -9.08980783	     -7.34384958	    -58.93851093	    118.48655246	    -42.54750400	   -148.78561517	      4.03806351	      5.82157140	     22.75641520	    -10.60941363	    -33.73672620	     -7.50357829	    -27.21089045	     10.15818284	     56.67504382	     -1.34224923	      7.37224381	     23.36844991	     20.81967618	     15.46736695	    -11.42528081
      2.20000000	     -2.74017272	      5.24627880	     11.20362596	     -0.10542342	      1.02563672	      0.01395220	     15.82052986	    -14.61094112	     36.75529029	    -13.09290093	     17.41526642	     -9.12777204	     -7.70244064	    -59.19537191	    118.38589687	    -44.11803760	   -149.43778150	      4.38126676	      5.65481261	     22.57695087	    -10.37811396	    -33.46485771	     -7.88961010	    -27.58901490	     10.01730600	     56.51340673	     -1.69321622	      7.49323359	     24.92323396	     20.75471809	     15.44528335	    -11.78411525
      2.21000000	     -2.70223649	      5.36885467	     11.23703210	     -0.10604624	      1.02575569	      0.01416329	     15.67858152	    -14.98216363	     35.75015896	    -13.06001894	     16.20972341	     -8.55776280	     -7.94165656	    -59.54020975	    117.77565891	    -45.89221878	   -152.41448298	      4.79241576	      5.86017171	     22.33372465	    -10.47384351	    -33.05291925	     -8.02823151	    -28.03102749	      9.71897684	     57.12249003	     -2.48336121	      7.15507405	     26.85005738	     20.98742282	     16.05135044	    -12.17213243
      2.22000000	     -2.53812030	      5.27333018	     11.17691269	     -0.10639401	      1.02521062	      0.01432699	     15.39686513	    -14.58380765	     35.03917826	    -12.57907260	     15.75018388	     -8.52962845	     -8.38390777	    -59.71644245	    117.68612288	    -47.45603296	   -152.83344660	      5.20733947	      5.85624705	     22.05322966	    -10.06746862	    -32.63364063	     -8.53629511	    -28.33332878	      9.53098496	     57.01139027	     -2.78343203	      7.85311711	     28.58697060	     20.76491888	     16.01729014	    -12.49847016
      2.23000000	     -2.64137669	      5.30702299	     11.30794066	     -0.10655261	      1.02597397	      0.01432231	     14.96157690	    -15.43500718	     33.59000412	    -12.98631337	     14.59404646	     -7.43152847	     -9.15657845	    -60.53623464	    116.84951534	    -49.39490516	   -157.21637258	      5.45032442	      6.56367595	     21.52826143	    -10.09860191	    -31.76602323	     -8.78351824	    -28.85443772	      8.97568688	     57.75170239	     -3.76878170	      7.79955919	     30.73445168	     20.85829422	     17.41337909	    -12.63699380
